<svg xmlns="http://www.w3.org/2000/svg" xmlns:xlink="http://www.w3.org/1999/xlink" zoomAndPan="magnify" preserveAspectRatio="xMidYMid meet" version="1.0" viewBox="33.09 57.33 68.15 49.34"><defs><g/></defs><g fill="#f48c24" fill-opacity="1"><g transform="translate(27.663486, 86.694335)"><g><path d="M 16.933594 -28.777344 L 14.640625 -28.777344 C 13.636719 -28.777344 12.636719 -28.570312 11.511719 -27.859375 L 5.421875 -24.066406 L 5.421875 -20.269531 L 13.347656 -24.984375 L 13.347656 0 L 16.933594 0 Z M 16.933594 -28.777344 "/></g></g></g><g fill="#f48c24" fill-opacity="1"><g transform="translate(49.89323, 86.694335)"><g><path d="M 4.210938 -4.753906 C 2.667969 -4.753906 1.542969 -3.628906 1.542969 -2.085938 C 1.542969 -0.542969 2.667969 0.582031 4.210938 0.582031 C 5.753906 0.582031 6.882812 -0.542969 6.882812 -2.085938 C 6.882812 -3.628906 5.753906 -4.753906 4.210938 -4.753906 Z M 4.210938 -4.753906 "/></g></g></g><g fill="#f48c24" fill-opacity="1"><g transform="translate(57.108417, 86.694335)"><g><path d="M 12.09375 -29.363281 C 4.171875 -29.363281 1.710938 -22.773438 1.710938 -14.390625 C 1.710938 -6.046875 4.171875 0.582031 12.09375 0.582031 C 20.019531 0.582031 22.480469 -6.046875 22.480469 -14.390625 C 22.480469 -22.773438 20.019531 -29.363281 12.09375 -29.363281 Z M 12.09375 -2.253906 C 7.507812 -2.253906 5.714844 -6.882812 5.714844 -14.390625 C 5.714844 -21.9375 7.507812 -26.527344 12.09375 -26.527344 C 16.683594 -26.527344 18.476562 -21.9375 18.476562 -14.390625 C 18.476562 -6.882812 16.683594 -2.253906 12.09375 -2.253906 Z M 12.09375 -2.253906 "/></g></g></g><g fill="#f48c24" fill-opacity="1"><g transform="translate(27.663486, 106.194334)"><g/></g></g><g fill="#f48c24" fill-opacity="1"><g transform="translate(32.68479, 106.194334)"><g/></g></g><g fill="#f48c24" fill-opacity="1"><g transform="translate(37.706094, 106.194334)"><g/></g></g><g fill="#f48c24" fill-opacity="1"><g transform="translate(42.722079, 106.194334)"><g><path d="M 11.460938 -18.335938 C 9.640625 -18.335938 7.753906 -17.761719 6.742188 -16.917969 L 5.394531 -15 L 5.394531 -24.773438 L 2.496094 -24.773438 L 2.496094 0 L 5.394531 0 L 5.394531 -2.460938 L 6.574219 -0.707031 C 7.484375 0.0351562 9.371094 0.472656 10.851562 0.472656 C 15.46875 0.472656 19.582031 -2.59375 19.582031 -9.203125 C 19.582031 -14.425781 16.683594 -18.335938 11.460938 -18.335938 Z M 10.851562 -1.753906 C 8.292969 -1.753906 5.394531 -3.503906 5.394531 -8.121094 L 5.394531 -9.101562 C 5.394531 -14.222656 8.054688 -16.109375 11.023438 -16.109375 C 14.59375 -16.109375 16.414062 -12.910156 16.414062 -8.863281 C 16.414062 -4.179688 13.988281 -1.753906 10.851562 -1.753906 Z M 10.851562 -1.753906 "/></g></g></g><g fill="#f48c24" fill-opacity="1"><g transform="translate(61.056145, 106.194334)"><g><path d="M 17.15625 -9.4375 C 17.15625 -14.660156 14.425781 -18.335938 9.503906 -18.335938 C 4.617188 -18.335938 1.011719 -14.660156 1.011719 -8.863281 C 1.011719 -2.5625 4.484375 0.472656 9.132812 0.472656 C 12.808594 0.472656 16.210938 -1.449219 16.917969 -5.761719 L 13.886719 -5.761719 C 13.480469 -3.203125 11.59375 -1.753906 9.269531 -1.753906 C 6.640625 -1.753906 4.414062 -3.335938 4.144531 -8.054688 L 17.089844 -8.054688 C 17.15625 -8.695312 17.15625 -9.167969 17.15625 -9.4375 Z M 9.4375 -16.109375 C 12.371094 -16.109375 13.953125 -13.988281 14.222656 -10.28125 L 4.179688 -10.28125 C 4.515625 -14.089844 6.605469 -16.109375 9.4375 -16.109375 Z M 9.4375 -16.109375 "/></g></g></g><g fill="#f48c24" fill-opacity="1"><g transform="translate(77.300611, 106.194334)"><g><path d="M 5.964844 -15.503906 L 9.300781 -15.503906 L 9.300781 -17.730469 L 5.964844 -17.730469 L 5.964844 -21.875 L 3.066406 -21.875 L 3.066406 -17.730469 L 0.675781 -17.730469 L 0.675781 -15.503906 L 3.066406 -15.503906 L 3.066406 -5.089844 C 3.066406 -4.078125 3.066406 -3.335938 3.101562 -2.863281 C 3.269531 -0.640625 4.414062 0.269531 6.640625 0.269531 C 7.449219 0.269531 8.257812 0.234375 9.101562 0.101562 L 9.101562 -2.023438 C 6.84375 -1.753906 6.132812 -2.125 6 -3.84375 C 5.964844 -4.3125 5.964844 -4.617188 5.964844 -5.222656 Z M 5.964844 -15.503906 "/></g></g></g><g fill="#f48c24" fill-opacity="1"><g transform="translate(85.591126, 106.194334)"><g><path d="M 12.742188 0 L 15.640625 0 C 15.371094 -1.988281 15.300781 -3.203125 15.300781 -4.550781 L 15.300781 -11.257812 C 15.300781 -12.03125 15.269531 -12.910156 15.199219 -13.617188 C 14.898438 -16.550781 13.109375 -18.335938 8.863281 -18.335938 C 4.921875 -18.335938 2.257812 -16.144531 1.988281 -12.335938 L 5.023438 -12.335938 C 5.222656 -14.796875 6.4375 -16.109375 8.863281 -16.109375 C 11.257812 -16.109375 12.203125 -15.03125 12.335938 -13.382812 C 12.402344 -12.707031 12.402344 -12 12.402344 -11.222656 L 12.402344 -10.75 L 11.257812 -10.75 C 4.246094 -10.75 1.214844 -8.664062 1.214844 -4.617188 C 1.214844 -1.316406 3.742188 0.472656 6.976562 0.472656 C 8.695312 0.472656 10.246094 0.203125 11.460938 -0.640625 L 12.4375 -2.5625 Z M 7.953125 -1.753906 C 5.761719 -1.753906 4.382812 -2.695312 4.382812 -4.855469 C 4.382812 -7.921875 7.484375 -8.964844 12.402344 -8.59375 L 12.402344 -6.773438 C 12.402344 -3.539062 10.652344 -1.753906 7.953125 -1.753906 Z M 7.953125 -1.753906 "/></g></g></g></svg>