<?xml version="1.0" standalone="no"?>
<!DOCTYPE svg PUBLIC "-//W3C//DTD SVG 20010904//EN"
 "http://www.w3.org/TR/2001/REC-SVG-20010904/DTD/svg10.dtd">
<svg version="1.0" xmlns="http://www.w3.org/2000/svg"
 width="254.000000pt" height="230.000000pt" viewBox="0 0 254.000000 230.000000"
 preserveAspectRatio="xMidYMid meet">

<g transform="translate(0.000000,230.000000) scale(0.100000,-0.100000)"
fill="#000000" stroke="none">
<path d="M0 2024 c0 -165 4 -283 10 -294 7 -13 7 -21 0 -25 -14 -9 -12 -42 3
-48 10 -4 10 -6 0 -6 -30 -2 -10 -21 22 -21 29 0 35 4 35 21 0 11 5 17 10 14
18 -11 51 6 62 33 8 20 12 23 15 11 4 -17 69 -36 81 -24 9 9 -19 25 -45 25
-33 0 -28 17 7 25 17 4 30 13 30 21 0 8 6 14 14 14 10 0 12 -7 8 -22 -3 -14
-1 -19 6 -14 7 4 12 -7 15 -31 l4 -38 2 40 c3 36 4 37 11 15 6 -20 8 -14 9 27
1 51 20 86 22 41 1 -17 3 -18 6 -5 10 39 21 13 16 -40 -4 -48 -2 -62 15 -80
10 -13 24 -23 31 -23 16 0 42 -69 35 -95 -3 -13 -1 -32 5 -44 10 -17 9 -20 -4
-15 -8 4 -15 1 -15 -6 0 -6 -4 -9 -10 -5 -5 3 -19 -15 -30 -41 -17 -37 -20
-57 -15 -96 6 -43 11 -51 41 -65 39 -19 47 -34 34 -67 -7 -19 -4 -30 11 -49
10 -14 19 -35 19 -46 0 -33 53 -61 97 -50 26 5 42 4 57 -7 11 -8 16 -14 10
-14 -6 0 -8 -15 -6 -35 3 -21 0 -35 -7 -35 -16 0 -13 -56 4 -70 13 -11 14 -8
9 18 -6 29 12 57 20 30 14 -53 23 -72 34 -76 9 -3 11 3 6 22 -4 18 -2 26 7 26
8 0 24 3 37 6 29 8 31 -24 2 -49 -15 -13 -18 -22 -12 -34 7 -11 4 -29 -8 -55
-22 -50 -16 -89 14 -84 11 3 24 5 28 5 4 1 14 8 22 17 20 20 21 4 1 -22 -8
-10 -15 -33 -15 -50 0 -17 -7 -37 -15 -44 -11 -9 -13 -16 -6 -23 15 -15 40 9
37 36 -2 12 6 31 16 41 15 17 18 17 18 3 0 -9 -4 -19 -10 -22 -5 -3 -10 -15
-10 -27 0 -11 -14 -33 -30 -48 -33 -31 -39 -68 -12 -76 9 -3 30 -12 45 -20 37
-18 43 -18 78 7 34 24 53 64 63 134 5 28 13 53 18 56 6 4 -1 24 -19 50 -43 62
-103 189 -97 204 3 7 1 16 -5 20 -7 3 -8 0 -5 -9 5 -13 2 -13 -20 -3 -33 16
-36 31 -20 113 8 43 9 73 3 79 -15 15 -10 28 7 21 13 -5 15 -2 9 16 -4 13 -8
61 -9 107 -1 78 1 88 27 124 26 36 28 45 24 102 -3 35 -3 73 0 84 6 24 36 45
78 55 l30 8 -21 -24 c-12 -13 -29 -38 -39 -56 -14 -29 -15 -40 -4 -83 12 -48
12 -49 -19 -88 -18 -22 -32 -42 -32 -44 0 -3 17 4 38 13 20 10 62 21 92 25 51
6 54 6 35 -9 -19 -15 -19 -15 12 -16 50 0 81 -19 85 -50 4 -26 2 -27 -20 -19
-40 15 -87 10 -122 -13 -34 -23 -41 -39 -21 -46 6 -2 11 3 11 11 0 23 27 28
33 7 6 -24 49 -45 72 -36 9 3 19 15 22 26 6 22 18 26 29 9 3 -6 0 -15 -7 -20
-11 -7 -9 -9 6 -9 11 0 26 4 34 9 13 8 13 12 0 27 -12 16 -12 17 4 11 21 -8
21 -7 3 28 -17 33 -3 75 25 75 31 0 29 15 -6 39 -26 18 -49 23 -102 25 -37 1
-80 -3 -95 -8 -34 -13 -42 -5 -33 33 5 24 12 31 31 31 13 0 24 5 24 11 0 5 -5
7 -10 4 -18 -11 -23 26 -6 43 15 16 17 15 22 -5 3 -12 12 -24 19 -27 8 -3 12
0 10 7 -2 7 4 28 15 47 10 19 26 52 35 73 10 20 21 37 26 37 5 0 9 7 9 15 0 8
14 17 36 21 51 9 88 45 114 109 12 30 27 55 32 55 5 0 7 -4 3 -9 -3 -5 -1 -12
5 -16 16 -10 12 -46 -7 -68 -10 -11 -12 -17 -5 -13 7 4 20 2 29 -6 12 -9 15
-9 9 0 -10 16 -7 16 42 -8 36 -18 87 -80 65 -80 -18 0 -12 -81 8 -115 31 -52
49 -58 104 -35 65 28 76 26 73 -10 -3 -34 -7 -36 -93 -45 -42 -5 -75 -17 -109
-38 -67 -42 -87 -90 -85 -196 1 -43 -1 -83 -4 -88 -3 -5 -1 -27 4 -49 14 -54
11 -126 -6 -143 -10 -10 -34 -14 -75 -13 -33 1 -60 -2 -60 -6 0 -10 37 -30 65
-34 11 -2 26 -16 33 -31 11 -22 17 -25 31 -17 39 20 42 -20 4 -46 -21 -13 -47
-17 -108 -17 -71 0 -94 -7 -95 -27 0 -8 78 -14 176 -14 62 0 81 -3 77 -13 -3
-7 -10 -11 -16 -10 -6 1 -11 -5 -12 -13 0 -8 -10 -16 -22 -18 -14 -2 -23 -10
-23 -22 0 -13 13 -21 52 -30 40 -10 53 -10 56 -1 5 14 42 -25 42 -44 0 -14
-32 -45 -47 -45 -5 0 -20 -11 -32 -24 -28 -30 -99 -50 -151 -43 -50 6 -53 -10
-7 -46 82 -64 119 -106 123 -138 2 -17 8 -37 14 -44 6 -8 6 -15 -2 -23 -9 -9
-9 -15 0 -24 9 -9 8 -14 -4 -23 -16 -11 -19 -53 -12 -145 l3 -45 59 -3 c50 -3
58 -1 53 12 -4 9 -2 16 3 16 6 0 10 -7 10 -15 0 -13 37 -15 273 -15 l272 1
-35 30 c-39 34 -130 79 -159 79 -11 0 -56 14 -100 31 -44 17 -86 27 -92 23
-15 -9 -9 25 26 156 14 52 28 122 32 155 6 53 7 57 16 32 5 -15 13 -27 18 -27
5 0 9 -7 9 -16 0 -11 6 -15 20 -11 27 7 26 -20 -1 -28 -12 -4 -26 -2 -32 4
-18 18 -27 12 -27 -19 0 -36 25 -40 71 -13 35 21 43 41 29 78 -6 15 -8 30 -5
33 3 3 5 2 5 -3 0 -4 9 3 19 17 12 15 21 44 23 75 3 44 5 49 20 40 9 -6 14
-15 12 -19 -3 -5 -9 -6 -13 -4 -7 4 -6 -25 1 -86 2 -19 18 -25 18 -8 0 6 11
10 24 10 14 0 31 9 39 20 8 11 17 17 20 14 13 -13 27 46 17 71 -5 14 -7 25 -4
25 4 0 -1 11 -10 25 -10 15 -14 34 -10 49 4 19 -1 32 -20 51 -15 15 -24 31
-21 36 11 18 24 9 36 -26 7 -19 17 -35 21 -35 13 0 -3 54 -19 67 -11 8 -13 21
-8 44 l7 33 16 -30 c17 -31 19 -35 21 -59 1 -19 21 -20 21 -1 0 8 11 17 24 20
35 9 79 96 70 141 -5 28 -2 35 16 45 21 11 70 101 70 128 0 7 11 28 25 46 41
54 36 70 -46 140 -28 24 -23 37 9 20 32 -16 77 -20 52 -4 -13 9 -13 11 0 20 8
5 20 10 26 10 6 0 23 9 38 21 21 17 24 24 15 40 -7 14 -7 29 2 54 15 39 -2
135 -27 155 -9 8 -14 31 -14 61 0 34 -4 48 -12 47 -8 -2 -11 3 -8 12 3 8 5 47
5 86 0 57 2 66 11 49 11 -22 14 -35 17 -85 1 -16 5 -30 10 -30 12 0 8 -48 -5
-54 -7 -4 -3 -4 10 -2 18 3 22 -1 23 -22 2 -24 2 -25 6 -4 2 12 9 20 14 17 8
-6 11 2 8 22 0 3 6 10 13 14 18 10 16 48 -3 60 -11 7 -9 9 8 9 12 0 24 6 27
13 3 9 9 7 19 -5 8 -10 17 -15 20 -12 3 3 -3 15 -13 27 -22 23 -18 37 11 37
10 0 19 4 19 9 0 4 11 6 25 3 14 -2 25 -8 25 -13 0 -4 13 -7 29 -6 l29 2 1
207 2 208 -940 0 -940 0 -15 -22 c-9 -12 -16 -18 -16 -12 0 5 5 15 12 22 9 9
-61 12 -315 12 l-327 0 0 -276z m655 118 c17 -6 25 -11 18 -11 -22 -2 -63 19
-63 31 0 9 3 10 8 2 4 -6 21 -16 37 -22z m-95 -42 c0 -5 -2 -10 -4 -10 -3 0
-8 5 -11 10 -3 6 -1 10 4 10 6 0 11 -4 11 -10z m-65 -70 c-3 -5 -15 -15 -25
-20 -16 -8 -18 -8 -14 4 3 8 13 17 22 19 10 3 18 5 20 6 2 0 0 -3 -3 -9z
m1625 0 c0 -5 -4 -10 -10 -10 -5 0 -10 5 -10 10 0 6 5 10 10 10 6 0 10 -4 10
-10z m45 0 c3 -5 1 -10 -4 -10 -6 0 -11 5 -11 10 0 6 2 10 4 10 3 0 8 -4 11
-10z m-1734 -80 c-7 -36 -9 -39 -10 -15 -1 33 11 85 16 70 1 -6 -1 -30 -6 -55z
m1692 24 c-6 -17 -23 -9 -23 11 0 8 6 12 14 9 8 -3 12 -12 9 -20z m-1652 -18
c-9 -18 -18 -29 -20 -24 -4 12 19 58 29 58 4 0 0 -15 -9 -34z m11 -18 c-7 -7
-12 -8 -12 -2 0 14 12 26 19 19 2 -3 -1 -11 -7 -17z m1168 -1 c0 -8 -7 -14
-15 -14 -16 0 -19 9 -8 20 11 11 23 8 23 -6z m-1170 -42 c0 -8 -2 -15 -4 -15
-2 0 -6 7 -10 15 -3 8 -1 15 4 15 6 0 10 -7 10 -15z m996 -24 c-4 -5 -13 -8
-21 -4 -8 3 -15 0 -15 -7 0 -6 -5 -8 -10 -5 -7 4 -3 14 9 24 11 10 19 20 17
23 -1 3 4 0 12 -7 8 -7 11 -18 8 -24z m-1032 14 c3 -8 12 -15 20 -15 17 0 29
-27 16 -35 -6 -4 -14 -4 -20 0 -5 3 -24 -1 -42 -8 -18 -8 -39 -13 -46 -11 -7
1 -8 0 -2 -3 12 -6 13 -23 1 -23 -11 0 -32 56 -24 64 3 3 12 -2 19 -12 12 -16
13 -16 19 0 4 9 13 14 21 11 10 -4 14 3 14 21 0 28 14 35 24 11z m-239 -45
c-3 -5 -11 -10 -16 -10 -6 0 -7 5 -4 10 3 6 11 10 16 10 6 0 7 -4 4 -10z m899
-27 c-6 -29 -7 -30 -25 -15 -25 21 -24 31 4 41 28 11 28 10 21 -26z m-819 7
c-3 -5 -12 -10 -18 -10 -7 0 -6 4 3 10 19 12 23 12 15 0z m1092 -22 c-3 -8 -6
-5 -6 6 -1 11 2 17 5 13 3 -3 4 -12 1 -19z m-229 -23 c-3 -3 -9 2 -12 12 -6
14 -5 15 5 6 7 -7 10 -15 7 -18z m69 8 c0 -10 -4 -24 -10 -30 -11 -15 -47 -17
-47 -3 0 6 7 10 15 10 8 0 19 9 25 20 13 25 17 25 17 3z m-1089 -15 c10 -10
15 -10 22 2 8 12 10 11 10 -6 0 -29 -65 -50 -87 -28 -9 8 -23 12 -34 9 -14 -5
-17 -2 -13 9 8 20 21 20 55 2 24 -12 26 -12 22 5 -6 22 7 25 25 7z m858 -23
c1 -8 -2 -15 -7 -15 -5 0 -9 4 -9 9 0 5 -3 18 -6 28 -6 15 -4 16 6 6 8 -7 15
-20 16 -28z m-599 -57 c-3 -7 -5 -2 -5 12 0 14 2 19 5 13 2 -7 2 -19 0 -25z
m1827 16 c6 -15 4 -15 -11 -3 -10 7 -20 15 -22 16 -2 2 3 3 11 3 9 0 19 -7 22
-16z m-744 -53 c0 -6 -4 -13 -10 -16 -5 -3 -10 1 -10 9 0 9 5 16 10 16 6 0 10
-4 10 -9z m71 -16 c0 -14 -41 -19 -41 -5 0 7 7 9 16 6 9 -4 13 -2 8 5 -4 7 -2
10 5 8 7 -3 12 -9 12 -14z m-1081 -26 c0 -11 -4 -17 -10 -14 -5 3 -10 13 -10
21 0 8 5 14 10 14 6 0 10 -9 10 -21z m1130 -4 c0 -35 -33 -50 -72 -34 l-30 12
31 13 c17 7 38 11 46 8 9 -4 15 0 15 10 0 9 2 16 5 16 3 0 5 -11 5 -25z m610
1 c0 -8 -4 -18 -10 -21 -5 -3 -10 3 -10 14 0 12 5 21 10 21 6 0 10 -6 10 -14z
m70 -63 c0 -12 -12 -35 -26 -50 l-25 -28 21 31 c12 17 20 40 18 50 -3 15 -8
10 -24 -20 -11 -22 -27 -42 -35 -44 -8 -3 -5 5 9 20 12 13 22 31 22 39 0 8 6
21 13 28 10 11 10 13 0 7 -14 -8 -16 3 -6 30 6 16 9 14 19 -11 7 -17 13 -40
14 -52z m-1325 37 c-3 -5 -12 -10 -18 -10 -7 0 -6 4 3 10 19 12 23 12 15 0z
m-475 -51 c0 -6 -4 -7 -10 -4 -5 3 -10 11 -10 16 0 6 5 7 10 4 6 -3 10 -11 10
-16z m1214 -175 c8 -20 -11 -17 -34 6 -11 11 -26 20 -32 20 -9 0 -9 3 1 9 16
10 56 -11 65 -35z m-1274 -4 c0 -11 -4 -20 -10 -20 -5 0 -10 9 -10 20 0 11 5
20 10 20 6 0 10 -9 10 -20z m1170 -5 c25 -14 24 -14 -18 -15 -23 0 -58 -7 -77
-15 -34 -13 -35 -13 -25 5 21 40 74 51 120 25z m-75 -95 c8 -7 35 -10 60 -8
44 3 45 3 26 -13 -20 -17 -20 -17 7 -22 15 -3 37 1 49 9 34 22 50 17 55 -15 6
-39 -20 -104 -39 -97 -8 4 -17 -4 -23 -19 -5 -14 -13 -25 -17 -26 -5 0 -17 -3
-28 -5 -46 -11 -61 -9 -83 12 -13 13 -23 26 -22 30 1 4 -4 10 -11 15 -10 6 -9
12 5 27 11 13 14 22 6 27 -5 3 -8 11 -5 16 4 5 0 9 -7 9 -7 0 -4 6 7 12 18 11
17 12 -15 24 -19 7 -29 13 -22 13 6 1 12 9 12 19 0 10 6 24 13 31 10 10 13 8
15 -8 2 -11 10 -25 17 -31z m652 -17 c-3 -18 -1 -23 9 -19 17 7 18 -6 2 -22
-21 -21 -28 -13 -28 34 0 30 4 43 11 38 6 -3 9 -17 6 -31z m-1412 -453 c3 -5
1 -10 -4 -10 -6 0 -11 5 -11 10 0 6 2 10 4 10 3 0 8 -4 11 -10z m1172 -50 c1
-11 -2 -20 -7 -20 -6 0 -10 6 -10 14 0 8 -3 23 -6 33 -6 15 -4 16 6 6 8 -7 15
-22 17 -33z m-114 -70 c4 -17 3 -19 -9 -9 -8 6 -14 18 -14 26 0 20 16 8 23
-17z m-70 -39 c-4 -25 -3 -32 6 -26 7 4 10 13 7 21 -6 16 10 19 19 4 3 -6 7
-29 7 -51 1 -53 17 -30 19 26 0 32 2 36 9 20 20 -47 8 -83 -31 -90 -20 -4 -28
3 -47 38 -25 48 -26 55 -11 94 8 22 12 24 19 13 6 -8 7 -30 3 -49z m175 28
c-2 -6 -8 -10 -13 -10 -5 0 -11 4 -13 10 -2 6 4 11 13 11 9 0 15 -5 13 -11z
m-221 -101 c-3 -8 -6 -5 -6 6 -1 11 2 17 5 13 3 -3 4 -12 1 -19z m-903 -29
c-8 -14 -24 -10 -24 6 0 9 6 12 15 9 8 -4 12 -10 9 -15z m51 -39 c3 -5 1 -10
-4 -10 -6 0 -11 5 -11 10 0 6 2 10 4 10 3 0 8 -4 11 -10z"/>
<path d="M2460 1870 c0 -5 5 -10 10 -10 6 0 10 5 10 10 0 6 -4 10 -10 10 -5 0
-10 -4 -10 -10z"/>
<path d="M2485 1850 c-4 -6 -1 -17 5 -25 10 -12 10 -18 0 -29 -6 -8 -10 -25
-7 -38 l4 -23 8 23 c4 12 11 22 16 22 5 0 9 9 9 20 0 11 5 20 10 20 6 0 10 9
10 20 0 15 -7 20 -24 20 -14 0 -28 -5 -31 -10z"/>
<path d="M2445 1810 c4 -6 11 -8 16 -5 14 9 11 15 -7 15 -8 0 -12 -5 -9 -10z"/>
<path d="M2420 1776 c0 -9 5 -16 10 -16 6 0 10 4 10 9 0 6 -4 13 -10 16 -5 3
-10 -1 -10 -9z"/>
<path d="M2350 1729 c0 -5 5 -7 10 -4 6 3 10 8 10 11 0 2 -4 4 -10 4 -5 0 -10
-5 -10 -11z"/>
<path d="M310 1711 c0 -6 4 -13 10 -16 6 -3 7 1 4 9 -7 18 -14 21 -14 7z"/>
<path d="M80 1631 c0 -6 19 -12 43 -14 l42 -4 -43 -1 c-54 -2 -53 -27 1 -27
21 0 37 -3 37 -7 0 -5 -18 -8 -40 -8 -22 0 -40 -4 -40 -9 0 -5 -11 -12 -25
-15 -25 -7 -32 -20 -16 -31 14 -8 91 6 85 16 -3 5 3 12 13 16 25 9 33 23 33
61 0 31 -1 32 -45 32 -25 0 -45 -4 -45 -9z"/>
<path d="M32 1603 c-6 -2 -10 -9 -6 -14 3 -5 -2 -9 -10 -9 -9 0 -16 -5 -16
-11 0 -14 52 -2 62 14 16 25 3 34 -30 20z"/>
<path d="M194 1588 c-3 -4 6 -8 20 -8 14 0 26 4 26 9 0 11 -39 10 -46 -1z"/>
<path d="M160 1524 c0 -8 5 -12 10 -9 6 4 8 11 5 16 -9 14 -15 11 -15 -7z"/>
<path d="M320 1529 c0 -5 5 -7 10 -4 6 3 10 8 10 11 0 2 -4 4 -10 4 -5 0 -10
-5 -10 -11z"/>
<path d="M160 1480 c0 -5 5 -10 11 -10 5 0 7 5 4 10 -3 6 -8 10 -11 10 -2 0
-4 -4 -4 -10z"/>
<path d="M338 1483 c7 -3 16 -2 19 1 4 3 -2 6 -13 5 -11 0 -14 -3 -6 -6z"/>
<path d="M670 850 c0 -5 5 -10 10 -10 6 0 10 5 10 10 0 6 -4 10 -10 10 -5 0
-10 -4 -10 -10z"/>
<path d="M710 574 c0 -8 5 -12 10 -9 6 4 8 11 5 16 -9 14 -15 11 -15 -7z"/>
</g>
</svg>
