<svg xmlns="http://www.w3.org/2000/svg" xmlns:xlink="http://www.w3.org/1999/xlink" zoomAndPan="magnify" preserveAspectRatio="xMidYMid meet" version="1.0" viewBox="29.37 64.41 87.47 29.94"><defs><g/></defs><g fill="#f48c24" fill-opacity="1"><g transform="translate(27.663486, 93.774048)"><g><path d="M 12.09375 -29.359375 C 4.171875 -29.359375 1.710938 -22.769531 1.710938 -14.386719 C 1.710938 -6.046875 4.171875 0.582031 12.09375 0.582031 C 20.019531 0.582031 22.480469 -6.046875 22.480469 -14.386719 C 22.480469 -22.769531 20.019531 -29.359375 12.09375 -29.359375 Z M 12.09375 -2.253906 C 7.507812 -2.253906 5.714844 -6.882812 5.714844 -14.386719 C 5.714844 -21.9375 7.507812 -26.523438 12.09375 -26.523438 C 16.683594 -26.523438 18.476562 -21.9375 18.476562 -14.386719 C 18.476562 -6.882812 16.683594 -2.253906 12.09375 -2.253906 Z M 12.09375 -2.253906 "/></g></g></g><g fill="#f48c24" fill-opacity="1"><g transform="translate(51.846479, 93.774048)"><g><path d="M 4.210938 -4.753906 C 2.667969 -4.753906 1.542969 -3.628906 1.542969 -2.085938 C 1.542969 -0.542969 2.667969 0.582031 4.210938 0.582031 C 5.753906 0.582031 6.882812 -0.542969 6.882812 -2.085938 C 6.882812 -3.628906 5.753906 -4.753906 4.210938 -4.753906 Z M 4.210938 -4.753906 "/></g></g></g><g fill="#f48c24" fill-opacity="1"><g transform="translate(61.019337, 93.774048)"><g><path d="M 12.21875 -29.359375 C 6.382812 -29.359375 2.042969 -25.230469 2.042969 -19.101562 C 2.042969 -13.386719 5.589844 -9.34375 11.59375 -9.34375 C 13.679688 -9.34375 15.304688 -9.882812 16.847656 -11.175781 L 18.476562 -13.761719 C 18.183594 -5.378906 15.429688 -2.253906 11.550781 -2.253906 C 8.632812 -2.253906 6.921875 -3.921875 6.253906 -7.171875 L 6.171875 -7.589844 L 2.335938 -7.589844 L 2.378906 -7.171875 C 2.835938 -2.460938 6.339844 0.582031 11.261719 0.582031 C 17.183594 0.582031 22.394531 -4.171875 22.394531 -15.765625 C 22.394531 -25.316406 18.640625 -29.359375 12.21875 -29.359375 Z M 12.21875 -12.179688 C 7.839844 -12.179688 6.046875 -15.515625 6.046875 -19.519531 C 6.046875 -23.6875 8.632812 -26.523438 12.21875 -26.523438 C 15.847656 -26.523438 18.226562 -23.4375 18.226562 -19.433594 C 18.226562 -14.636719 15.472656 -12.179688 12.21875 -12.179688 Z M 12.21875 -12.179688 "/></g></g></g><g fill="#f48c24" fill-opacity="1"><g transform="translate(85.19257, 93.774048)"><g><path d="M 4.210938 -4.753906 C 2.667969 -4.753906 1.542969 -3.628906 1.542969 -2.085938 C 1.542969 -0.542969 2.667969 0.582031 4.210938 0.582031 C 5.753906 0.582031 6.882812 -0.542969 6.882812 -2.085938 C 6.882812 -3.628906 5.753906 -4.753906 4.210938 -4.753906 Z M 4.210938 -4.753906 "/></g></g></g><g fill="#f48c24" fill-opacity="1"><g transform="translate(94.365429, 93.774048)"><g><path d="M 12.09375 -29.359375 C 4.171875 -29.359375 1.710938 -22.769531 1.710938 -14.386719 C 1.710938 -6.046875 4.171875 0.582031 12.09375 0.582031 C 20.019531 0.582031 22.480469 -6.046875 22.480469 -14.386719 C 22.480469 -22.769531 20.019531 -29.359375 12.09375 -29.359375 Z M 12.09375 -2.253906 C 7.507812 -2.253906 5.714844 -6.882812 5.714844 -14.386719 C 5.714844 -21.9375 7.507812 -26.523438 12.09375 -26.523438 C 16.683594 -26.523438 18.476562 -21.9375 18.476562 -14.386719 C 18.476562 -6.882812 16.683594 -2.253906 12.09375 -2.253906 Z M 12.09375 -2.253906 "/></g></g></g></svg>