<svg xmlns="http://www.w3.org/2000/svg" xmlns:xlink="http://www.w3.org/1999/xlink" width="200" zoomAndPan="magnify" viewBox="0 0 150 149.999998" height="200" preserveAspectRatio="xMidYMid meet" version="1.0"><defs><g/></defs><g fill="#f48c24" fill-opacity="1"><g transform="translate(5.294119, 77.250611)"><g><path d="M 0 -53.164062 C 3.191406 -50.355469 4.632812 -44.125 6.457031 -37.972656 C 9.039062 -29.316406 10.328125 -25.214844 12.152344 -18.074219 C 14.125 -10.40625 16.328125 0 22.554688 0 L 39.1875 0 C 41.316406 0 43.519531 0.0742188 45.113281 -4.558594 C 45.949219 -7.0625 46.859375 -9.570312 47.769531 -12.074219 C 49.519531 -5.925781 51.949219 0 56.582031 0 L 73.214844 0 C 75.339844 0 77.617188 0.0742188 79.136719 -4.558594 C 84.378906 -20.429688 91.136719 -37.214844 91.136719 -44.582031 C 91.136719 -49.519531 88.859375 -54.304688 82.859375 -54.304688 C 74.960938 -54.304688 65.238281 -48.757812 65.238281 -43.972656 C 65.238281 -40.101562 78.984375 -41.695312 78.984375 -22.328125 C 78.984375 -13.824219 76.175781 -5.011719 73.519531 -5.011719 C 69.796875 -5.011719 65.238281 -24.835938 61.746094 -37.972656 C 60.226562 -43.746094 58.785156 -48.910156 60.605469 -53.164062 L 34.023438 -53.164062 C 37.214844 -50.355469 38.734375 -44.125 40.480469 -37.972656 C 42.457031 -31.140625 43.746094 -27.191406 45.113281 -22.328125 L 45.039062 -22.328125 C 46.253906 -16.023438 42.152344 -5.011719 39.492188 -5.011719 C 35.773438 -5.011719 31.214844 -24.835938 27.722656 -37.972656 C 26.203125 -43.746094 24.757812 -48.910156 26.582031 -53.164062 Z M 0 -53.164062 "/></g></g></g><g fill="#f48c24" fill-opacity="1"><g transform="translate(56.777547, 125.769438)"><g><path d="M 6.457031 -37.972656 C 9.039062 -29.316406 10.328125 -25.214844 12.152344 -18.074219 C 14.125 -10.40625 16.328125 0 22.554688 0 L 39.1875 0 C 41.316406 0 43.519531 0.0742188 45.113281 -4.558594 C 50.582031 -20.355469 57.113281 -37.214844 57.113281 -44.582031 C 57.113281 -49.519531 54.835938 -54.304688 48.835938 -54.304688 C 40.9375 -54.304688 31.214844 -48.757812 31.214844 -43.972656 C 31.214844 -40.101562 44.960938 -41.695312 44.960938 -22.328125 C 44.960938 -13.824219 42.152344 -5.011719 39.492188 -5.011719 C 35.773438 -5.011719 31.214844 -24.835938 27.722656 -37.972656 C 26.203125 -43.746094 24.757812 -48.910156 26.582031 -53.164062 L 0 -53.164062 C 3.191406 -50.355469 4.632812 -44.125 6.457031 -37.972656 Z M 6.457031 -37.972656 "/></g></g></g><g fill="#f48c24" fill-opacity="1"><g transform="translate(94.725061, 74.812318)"><g><path d="M 0 -19.414062 C 0 -19.023438 0.394531 -18.988281 0.492188 -18.957031 C 1.734375 -18.53125 1.570312 -16.828125 1.570312 -16.4375 L 1.570312 -3.863281 C 1.570312 -1.996094 1.308594 -0.882812 0.425781 0 L 11.394531 0 C 10.507812 -0.882812 10.246094 -1.996094 10.246094 -3.863281 L 10.246094 -22.132812 C 10.246094 -22.789062 10.214844 -23.410156 9.265625 -23.410156 C 7.332031 -23.410156 1.636719 -20.460938 0.359375 -19.839844 C 0.292969 -19.808594 0 -19.742188 0 -19.414062 Z M 5.828125 -34.671875 C 2.945312 -34.671875 1.046875 -32.773438 1.046875 -29.890625 C 1.046875 -27.011719 2.945312 -25.113281 5.828125 -25.113281 C 8.707031 -25.113281 10.609375 -27.011719 10.609375 -29.890625 C 10.609375 -32.773438 8.707031 -34.671875 5.828125 -34.671875 Z M 5.828125 -34.671875 "/></g></g></g><g fill="#f48c24" fill-opacity="1"><g transform="translate(105.294106, 126.678868)"><g><path d="M 0.800781 -10.597656 C 0.800781 -4.289062 6.371094 0.480469 12.519531 0.480469 C 18.667969 0.480469 21.390625 -3.875 21.390625 -6.308594 C 21.390625 -6.851562 21.101562 -6.980469 20.878906 -6.980469 C 20.238281 -6.980469 19.757812 -5.316406 16.714844 -5.316406 C 13.03125 -5.316406 7.878906 -8.613281 7.878906 -9.765625 C 7.878906 -10.308594 8.292969 -10.277344 8.613281 -10.277344 C 14.25 -10.277344 21.230469 -9.03125 21.230469 -14.34375 C 21.230469 -18.765625 17.996094 -22.894531 12.296875 -22.894531 C 4.804688 -22.894531 0.800781 -17.609375 0.800781 -10.597656 Z M 4.386719 -16.457031 C 4.386719 -18.285156 6.277344 -19.40625 8.070312 -19.40625 C 10.757812 -19.40625 14.601562 -17.546875 14.601562 -14.21875 C 14.601562 -12.070312 11.046875 -11.816406 8.035156 -11.816406 C 5.445312 -11.816406 4.386719 -14.183594 4.386719 -16.457031 Z M 4.386719 -16.457031 "/></g></g></g></svg>