<svg xmlns="http://www.w3.org/2000/svg" xmlns:xlink="http://www.w3.org/1999/xlink" zoomAndPan="magnify" preserveAspectRatio="xMidYMid meet" version="1.0" viewBox="37.5 135.55 295.41 87.18"><defs><g/><clipPath id="f13a8c359b"><path d="M 250.609375 150.316406 L 327.105469 150.316406 L 327.105469 185.566406 L 250.609375 185.566406 Z M 250.609375 150.316406 " clip-rule="nonzero"/></clipPath><clipPath id="513bfeff24"><path d="M 258.894531 150.316406 L 318.820312 150.316406 C 321.015625 150.316406 323.125 151.183594 324.675781 152.722656 C 326.230469 154.261719 327.101562 156.351562 327.101562 158.527344 L 327.101562 177.355469 C 327.101562 179.535156 326.230469 181.621094 324.675781 183.160156 C 323.125 184.703125 321.015625 185.566406 318.820312 185.566406 L 258.894531 185.566406 C 256.695312 185.566406 254.589844 184.703125 253.035156 183.160156 C 251.484375 181.621094 250.609375 179.535156 250.609375 177.355469 L 250.609375 158.527344 C 250.609375 156.351562 251.484375 154.261719 253.035156 152.722656 C 254.589844 151.183594 256.695312 150.316406 258.894531 150.316406 " clip-rule="nonzero"/></clipPath></defs><g fill="#f48c24" fill-opacity="1"><g transform="translate(37.500002, 186.749988)"><g><path d="M 0 -33.839844 C 2.03125 -32.050781 2.949219 -28.089844 4.109375 -24.171875 C 5.753906 -18.660156 6.574219 -16.050781 7.734375 -11.507812 C 8.992188 -6.625 10.394531 0 14.359375 0 L 24.945312 0 C 26.300781 0 27.703125 0.046875 28.71875 -2.902344 C 29.25 -4.496094 29.828125 -6.089844 30.410156 -7.6875 C 31.519531 -3.769531 33.066406 0 36.015625 0 L 46.605469 0 C 47.957031 0 49.410156 0.046875 50.375 -2.902344 C 53.710938 -13.003906 58.015625 -23.6875 58.015625 -28.378906 C 58.015625 -31.519531 56.5625 -34.566406 52.746094 -34.566406 C 47.714844 -34.566406 41.527344 -31.039062 41.527344 -27.992188 C 41.527344 -25.527344 50.277344 -26.542969 50.277344 -14.214844 C 50.277344 -8.796875 48.488281 -3.191406 46.796875 -3.191406 C 44.429688 -3.191406 41.527344 -15.808594 39.304688 -24.171875 C 38.335938 -27.847656 37.417969 -31.132812 38.578125 -33.839844 L 21.660156 -33.839844 C 23.6875 -32.050781 24.65625 -28.089844 25.769531 -24.171875 C 27.023438 -19.820312 27.847656 -17.308594 28.71875 -14.214844 L 28.667969 -14.214844 C 29.441406 -10.199219 26.832031 -3.191406 25.140625 -3.191406 C 22.769531 -3.191406 19.871094 -15.808594 17.644531 -24.171875 C 16.679688 -27.847656 15.761719 -31.132812 16.921875 -33.839844 Z M 0 -33.839844 "/></g></g></g><g fill="#f48c24" fill-opacity="1"><g transform="translate(96.716307, 186.749988)"><g><path d="M 0 -28.667969 C 0 -28.089844 0.582031 -28.039062 0.726562 -27.992188 C 2.5625 -27.363281 2.320312 -24.847656 2.320312 -24.269531 L 2.320312 -5.703125 C 2.320312 -2.949219 1.933594 -1.304688 0.628906 0 L 16.824219 0 C 15.519531 -1.304688 15.132812 -2.949219 15.132812 -5.703125 L 15.132812 -32.679688 C 15.132812 -33.648438 15.082031 -34.566406 13.679688 -34.566406 C 10.828125 -34.566406 2.417969 -30.214844 0.53125 -29.296875 C 0.433594 -29.25 0 -29.152344 0 -28.667969 Z M 8.605469 -51.199219 C 4.351562 -51.199219 1.546875 -48.394531 1.546875 -44.140625 C 1.546875 -39.882812 4.351562 -37.082031 8.605469 -37.082031 C 12.859375 -37.082031 15.664062 -39.882812 15.664062 -44.140625 C 15.664062 -48.394531 12.859375 -51.199219 8.605469 -51.199219 Z M 8.605469 -51.199219 "/></g></g></g><g fill="#f48c24" fill-opacity="1"><g transform="translate(113.78027, 186.749988)"><g><path d="M 0.726562 -24.171875 C 0.726562 -14.695312 10.925781 -11.601562 18.757812 -11.601562 C 22.433594 -11.601562 25.285156 -12.230469 27.074219 -12.230469 C 28.378906 -12.230469 29.105469 -11.894531 29.105469 -10.734375 C 29.105469 -8.21875 25.621094 -6.285156 22.285156 -6.285156 C 13.441406 -6.285156 8.507812 -12.667969 5.609375 -12.667969 C 3.625 -12.667969 0.96875 -5.703125 0.96875 -3.625 C 0.96875 -1.160156 10.585938 0.726562 17.210938 0.726562 C 22.671875 0.726562 31.714844 -2.03125 31.714844 -10.972656 C 31.714844 -20.304688 22.191406 -22.820312 13.632812 -24.316406 C 9.574219 -25.042969 6.332031 -26.007812 6.332031 -28.378906 C 6.332031 -30.796875 8.507812 -31.714844 10.199219 -31.714844 C 16.242188 -31.714844 20.886719 -22.191406 27.316406 -22.191406 C 29.054688 -22.191406 31.8125 -25.527344 31.8125 -28.765625 C 31.8125 -31.570312 24.800781 -34.566406 16.292969 -34.566406 C 8.992188 -34.566406 0.726562 -32.246094 0.726562 -24.171875 Z M 0.726562 -24.171875 "/></g></g></g><g fill="#f48c24" fill-opacity="1"><g transform="translate(146.312983, 186.749988)"><g><path d="M 0.726562 -24.171875 C 0.726562 -14.695312 10.925781 -11.601562 18.757812 -11.601562 C 22.433594 -11.601562 25.285156 -12.230469 27.074219 -12.230469 C 28.378906 -12.230469 29.105469 -11.894531 29.105469 -10.734375 C 29.105469 -8.21875 25.621094 -6.285156 22.285156 -6.285156 C 13.441406 -6.285156 8.507812 -12.667969 5.609375 -12.667969 C 3.625 -12.667969 0.96875 -5.703125 0.96875 -3.625 C 0.96875 -1.160156 10.585938 0.726562 17.210938 0.726562 C 22.671875 0.726562 31.714844 -2.03125 31.714844 -10.972656 C 31.714844 -20.304688 22.191406 -22.820312 13.632812 -24.316406 C 9.574219 -25.042969 6.332031 -26.007812 6.332031 -28.378906 C 6.332031 -30.796875 8.507812 -31.714844 10.199219 -31.714844 C 16.242188 -31.714844 20.886719 -22.191406 27.316406 -22.191406 C 29.054688 -22.191406 31.8125 -25.527344 31.8125 -28.765625 C 31.8125 -31.570312 24.800781 -34.566406 16.292969 -34.566406 C 8.992188 -34.566406 0.726562 -32.246094 0.726562 -24.171875 Z M 0.726562 -24.171875 "/></g></g></g><g fill="#f48c24" fill-opacity="1"><g transform="translate(178.845696, 186.749988)"><g><path d="M 1.207031 -16.003906 C 1.207031 -6.476562 9.621094 0.726562 18.902344 0.726562 C 28.183594 0.726562 32.292969 -5.851562 32.292969 -9.523438 C 32.292969 -10.347656 31.859375 -10.539062 31.519531 -10.539062 C 30.554688 -10.539062 29.828125 -8.023438 25.234375 -8.023438 C 19.675781 -8.023438 11.894531 -13.003906 11.894531 -14.746094 C 11.894531 -15.566406 12.519531 -15.519531 13.003906 -15.519531 C 21.511719 -15.519531 32.050781 -13.632812 32.050781 -21.660156 C 32.050781 -28.332031 27.167969 -34.566406 18.566406 -34.566406 C 7.25 -34.566406 1.207031 -26.589844 1.207031 -16.003906 Z M 6.625 -24.847656 C 6.625 -27.605469 9.476562 -29.296875 12.183594 -29.296875 C 16.242188 -29.296875 22.046875 -26.492188 22.046875 -21.464844 C 22.046875 -18.226562 16.679688 -17.839844 12.132812 -17.839844 C 8.21875 -17.839844 6.625 -21.417969 6.625 -24.847656 Z M 6.625 -24.847656 "/></g></g></g><g fill="#f48c24" fill-opacity="1"><g transform="translate(212.103506, 186.749988)"><g><path d="M 16.679688 0 C 15.375 -1.304688 14.988281 -2.949219 14.988281 -5.703125 L 14.988281 -18.855469 C 14.988281 -24.222656 17.015625 -25.71875 19.242188 -25.71875 C 21.367188 -25.71875 21.996094 -23.640625 21.996094 -21.417969 L 21.996094 -5.703125 C 21.996094 -2.949219 21.609375 -1.304688 20.304688 0 L 36.5 0 C 35.195312 -1.304688 34.808594 -2.949219 34.808594 -5.703125 L 34.808594 -13.972656 L 34.761719 -23.207031 C 34.761719 -28.234375 33.550781 -34.566406 26.492188 -34.566406 C 18.324219 -34.566406 17.308594 -27.847656 15.324219 -27.847656 C 15.132812 -27.847656 14.988281 -27.847656 14.988281 -29.007812 L 14.988281 -29.828125 C 14.988281 -32.292969 14.40625 -33.839844 12.328125 -33.839844 L 0.484375 -33.839844 C 1.789062 -32.535156 2.175781 -30.890625 2.175781 -28.136719 L 2.175781 -5.703125 C 2.175781 -2.949219 1.789062 -1.304688 0.484375 0 Z M 16.679688 0 "/></g></g></g><g fill="#f48c24" fill-opacity="1"><g transform="translate(37.500002, 221.999985)"><g><path d="M 4.109375 -24.171875 C 5.753906 -18.660156 6.574219 -16.050781 7.734375 -11.507812 C 8.992188 -6.625 10.394531 0 14.359375 0 L 24.945312 0 C 26.300781 0 27.703125 0.046875 28.71875 -2.902344 C 32.199219 -12.957031 36.355469 -23.6875 36.355469 -28.378906 C 36.355469 -31.519531 34.90625 -34.566406 31.085938 -34.566406 C 26.058594 -34.566406 19.871094 -31.039062 19.871094 -27.992188 C 19.871094 -25.527344 28.621094 -26.542969 28.621094 -14.214844 C 28.621094 -8.796875 26.832031 -3.191406 25.140625 -3.191406 C 22.769531 -3.191406 19.871094 -15.808594 17.644531 -24.171875 C 16.679688 -27.847656 15.761719 -31.132812 16.921875 -33.839844 L 0 -33.839844 C 2.03125 -32.050781 2.949219 -28.089844 4.109375 -24.171875 Z M 4.109375 -24.171875 "/></g></g></g><g fill="#f48c24" fill-opacity="1"><g transform="translate(75.060058, 221.999985)"><g><path d="M 1.207031 -16.003906 C 1.207031 -6.476562 9.621094 0.726562 18.902344 0.726562 C 28.183594 0.726562 32.292969 -5.851562 32.292969 -9.523438 C 32.292969 -10.347656 31.859375 -10.539062 31.519531 -10.539062 C 30.554688 -10.539062 29.828125 -8.023438 25.234375 -8.023438 C 19.675781 -8.023438 11.894531 -13.003906 11.894531 -14.746094 C 11.894531 -15.566406 12.519531 -15.519531 13.003906 -15.519531 C 21.511719 -15.519531 32.050781 -13.632812 32.050781 -21.660156 C 32.050781 -28.332031 27.167969 -34.566406 18.566406 -34.566406 C 7.25 -34.566406 1.207031 -26.589844 1.207031 -16.003906 Z M 6.625 -24.847656 C 6.625 -27.605469 9.476562 -29.296875 12.183594 -29.296875 C 16.242188 -29.296875 22.046875 -26.492188 22.046875 -21.464844 C 22.046875 -18.226562 16.679688 -17.839844 12.132812 -17.839844 C 8.21875 -17.839844 6.625 -21.417969 6.625 -24.847656 Z M 6.625 -24.847656 "/></g></g></g><g fill="#f48c24" fill-opacity="1"><g transform="translate(108.317868, 221.999985)"><g><path d="M 0.484375 0 L 16.679688 0 C 15.375 -1.304688 14.988281 -2.949219 14.988281 -5.703125 L 14.988281 -18.855469 C 14.988281 -21.511719 15.566406 -25.1875 19.628906 -25.1875 C 24.316406 -25.1875 23.785156 -20.933594 25.863281 -20.933594 C 26.734375 -20.933594 27.847656 -23.496094 29.199219 -26.15625 C 30.410156 -28.570312 31.8125 -31.085938 31.8125 -31.664062 C 31.8125 -33.550781 28.332031 -34.566406 25.769531 -34.566406 C 18.175781 -34.566406 17.015625 -27.847656 15.324219 -27.847656 C 15.132812 -27.847656 14.988281 -27.847656 14.988281 -29.007812 L 14.988281 -29.828125 C 14.988281 -32.292969 14.40625 -33.839844 12.328125 -33.839844 L 0.484375 -33.839844 C 1.789062 -32.535156 2.175781 -30.890625 2.175781 -28.136719 L 2.175781 -5.703125 C 2.175781 -2.949219 1.789062 -1.304688 0.484375 0 Z M 0.484375 0 "/></g></g></g><g fill="#f48c24" fill-opacity="1"><g transform="translate(140.608882, 221.999985)"><g><path d="M 16.679688 0 C 15.375 -1.304688 14.988281 -2.949219 14.988281 -5.703125 L 14.988281 -18.855469 C 14.988281 -24.222656 17.015625 -25.71875 19.242188 -25.71875 C 21.367188 -25.71875 21.996094 -23.640625 21.996094 -21.417969 L 21.996094 -5.703125 C 21.996094 -2.949219 21.609375 -1.304688 20.304688 0 L 36.5 0 C 35.195312 -1.304688 34.808594 -2.949219 34.808594 -5.703125 L 34.808594 -13.972656 L 34.761719 -23.207031 C 34.761719 -28.234375 33.550781 -34.566406 26.492188 -34.566406 C 18.324219 -34.566406 17.308594 -27.847656 15.324219 -27.847656 C 15.132812 -27.847656 14.988281 -27.847656 14.988281 -29.007812 L 14.988281 -29.828125 C 14.988281 -32.292969 14.40625 -33.839844 12.328125 -33.839844 L 0.484375 -33.839844 C 1.789062 -32.535156 2.175781 -30.890625 2.175781 -28.136719 L 2.175781 -5.703125 C 2.175781 -2.949219 1.789062 -1.304688 0.484375 0 Z M 16.679688 0 "/></g></g></g><g fill="#f48c24" fill-opacity="1"><g transform="translate(177.347161, 221.999985)"><g><path d="M 1.207031 -16.003906 C 1.207031 -6.476562 9.621094 0.726562 18.902344 0.726562 C 28.183594 0.726562 32.292969 -5.851562 32.292969 -9.523438 C 32.292969 -10.347656 31.859375 -10.539062 31.519531 -10.539062 C 30.554688 -10.539062 29.828125 -8.023438 25.234375 -8.023438 C 19.675781 -8.023438 11.894531 -13.003906 11.894531 -14.746094 C 11.894531 -15.566406 12.519531 -15.519531 13.003906 -15.519531 C 21.511719 -15.519531 32.050781 -13.632812 32.050781 -21.660156 C 32.050781 -28.332031 27.167969 -34.566406 18.566406 -34.566406 C 7.25 -34.566406 1.207031 -26.589844 1.207031 -16.003906 Z M 6.625 -24.847656 C 6.625 -27.605469 9.476562 -29.296875 12.183594 -29.296875 C 16.242188 -29.296875 22.046875 -26.492188 22.046875 -21.464844 C 22.046875 -18.226562 16.679688 -17.839844 12.132812 -17.839844 C 8.21875 -17.839844 6.625 -21.417969 6.625 -24.847656 Z M 6.625 -24.847656 "/></g></g></g><g fill="#f48c24" fill-opacity="1"><g transform="translate(210.604971, 221.999985)"><g><path d="M 0 -33.839844 L 0 -31.425781 L 1.5 -31.425781 C 3.769531 -31.425781 3.722656 -29.78125 3.722656 -28.332031 L 3.722656 -12.8125 C 3.722656 -6.1875 5.027344 0.726562 14.308594 0.726562 C 16.628906 0.726562 19.339844 -0.386719 19.578125 -2.128906 C 19.097656 -2.222656 18.710938 -2.175781 18.324219 -2.417969 C 15.761719 -4.011719 16.003906 -8.121094 16.003906 -11.894531 L 16.003906 -31.425781 L 20.160156 -31.425781 L 20.160156 -33.839844 L 16.003906 -33.839844 L 16.003906 -42.785156 C 16.003906 -43.460938 15.664062 -43.945312 15.082031 -43.945312 C 13.148438 -43.945312 4.882812 -33.839844 0 -33.839844 Z M 0 -33.839844 "/></g></g></g><g fill="#f48c24" fill-opacity="1"><g transform="translate(231.246083, 221.999985)"><g><path d="M 0.726562 -4.785156 C 0.726562 -2.660156 1.113281 0 3.335938 0 L 28.570312 0 C 30.410156 0 30.167969 -0.386719 30.167969 -3.480469 C 30.167969 -4.253906 30.214844 -9.136719 30.214844 -10.78125 C 30.214844 -11.988281 30.117188 -12.328125 29.683594 -12.328125 C 28.667969 -12.328125 28.136719 -9.8125 24.222656 -9.8125 L 17.453125 -9.8125 C 16.003906 -9.8125 15.421875 -10.585938 15.421875 -12.039062 C 15.421875 -18.226562 31.183594 -26.445312 31.183594 -32.441406 C 31.183594 -34.132812 28.863281 -33.839844 27.945312 -33.839844 L 0.96875 -33.839844 L 0.96875 -24.171875 C 0.96875 -23.496094 1.355469 -22.820312 2.03125 -22.820312 C 3.335938 -22.820312 3.335938 -24.171875 7.445312 -24.171875 L 18.46875 -24.171875 C 19.339844 -24.171875 20.5 -24.171875 20.5 -23.253906 C 20.5 -20.789062 0.726562 -15.179688 0.726562 -4.785156 Z M 0.726562 -4.785156 "/></g></g></g><g fill="#f48c24" fill-opacity="1"><g transform="translate(263.150378, 221.999985)"><g><path d="M 1.207031 -16.003906 C 1.207031 -6.476562 9.621094 0.726562 18.902344 0.726562 C 28.183594 0.726562 32.292969 -5.851562 32.292969 -9.523438 C 32.292969 -10.347656 31.859375 -10.539062 31.519531 -10.539062 C 30.554688 -10.539062 29.828125 -8.023438 25.234375 -8.023438 C 19.675781 -8.023438 11.894531 -13.003906 11.894531 -14.746094 C 11.894531 -15.566406 12.519531 -15.519531 13.003906 -15.519531 C 21.511719 -15.519531 32.050781 -13.632812 32.050781 -21.660156 C 32.050781 -28.332031 27.167969 -34.566406 18.566406 -34.566406 C 7.25 -34.566406 1.207031 -26.589844 1.207031 -16.003906 Z M 6.625 -24.847656 C 6.625 -27.605469 9.476562 -29.296875 12.183594 -29.296875 C 16.242188 -29.296875 22.046875 -26.492188 22.046875 -21.464844 C 22.046875 -18.226562 16.679688 -17.839844 12.132812 -17.839844 C 8.21875 -17.839844 6.625 -21.417969 6.625 -24.847656 Z M 6.625 -24.847656 "/></g></g></g><g fill="#f48c24" fill-opacity="1"><g transform="translate(296.408189, 221.999985)"><g><path d="M 16.679688 0 C 15.375 -1.304688 14.988281 -2.949219 14.988281 -5.703125 L 14.988281 -18.855469 C 14.988281 -24.222656 17.015625 -25.71875 19.242188 -25.71875 C 21.367188 -25.71875 21.996094 -23.640625 21.996094 -21.417969 L 21.996094 -5.703125 C 21.996094 -2.949219 21.609375 -1.304688 20.304688 0 L 36.5 0 C 35.195312 -1.304688 34.808594 -2.949219 34.808594 -5.703125 L 34.808594 -13.972656 L 34.761719 -23.207031 C 34.761719 -28.234375 33.550781 -34.566406 26.492188 -34.566406 C 18.324219 -34.566406 17.308594 -27.847656 15.324219 -27.847656 C 15.132812 -27.847656 14.988281 -27.847656 14.988281 -29.007812 L 14.988281 -29.828125 C 14.988281 -32.292969 14.40625 -33.839844 12.328125 -33.839844 L 0.484375 -33.839844 C 1.789062 -32.535156 2.175781 -30.890625 2.175781 -28.136719 L 2.175781 -5.703125 C 2.175781 -2.949219 1.789062 -1.304688 0.484375 0 Z M 16.679688 0 "/></g></g></g><g clip-path="url(#f13a8c359b)"><g clip-path="url(#513bfeff24)"><path stroke-linecap="butt" transform="matrix(0.752999, 0, 0, 0.746525, 250.610964, 150.316893)" fill="none" stroke-linejoin="miter" d="M 11.000767 -0.000652462 L 90.58358 -0.000652462 C 93.499005 -0.000652462 96.300304 1.160979 98.359777 3.222613 C 100.424437 5.284248 101.58127 8.083675 101.58127 10.998219 L 101.58127 36.219227 C 101.58127 39.139003 100.424437 41.933198 98.359777 43.994832 C 96.300304 46.061699 93.499005 47.218098 90.58358 47.218098 L 11.000767 47.218098 C 8.080154 47.218098 5.284044 46.061699 3.219383 43.994832 C 1.15991 41.933198 -0.00211029 39.139003 -0.00211029 36.219227 L -0.00211029 10.998219 C -0.00211029 8.083675 1.15991 5.284248 3.219383 3.222613 C 5.284044 1.160979 8.080154 -0.000652462 11.000767 -0.000652462 " stroke="#f48c24" stroke-width="2" stroke-opacity="1" stroke-miterlimit="4"/></g></g><g fill="#f48c24" fill-opacity="1"><g transform="translate(260.115069, 166.446771)"><g><path d="M 5.6875 -6.453125 C 5.84375 -6.359375 5.921875 -6.222656 5.921875 -6.046875 C 5.921875 -5.929688 5.882812 -5.828125 5.8125 -5.734375 C 5.726562 -5.628906 5.617188 -5.578125 5.484375 -5.578125 C 5.390625 -5.578125 5.300781 -5.597656 5.21875 -5.640625 C 4.8125 -5.867188 4.375 -5.984375 3.90625 -5.984375 C 3.414062 -5.984375 2.984375 -5.875 2.609375 -5.65625 C 2.234375 -5.445312 1.941406 -5.144531 1.734375 -4.75 C 1.523438 -4.363281 1.421875 -3.921875 1.421875 -3.421875 C 1.421875 -2.878906 1.53125 -2.410156 1.75 -2.015625 C 1.96875 -1.628906 2.265625 -1.332031 2.640625 -1.125 C 3.015625 -0.925781 3.4375 -0.828125 3.90625 -0.828125 C 4.394531 -0.828125 4.832031 -0.941406 5.21875 -1.171875 C 5.300781 -1.210938 5.390625 -1.234375 5.484375 -1.234375 C 5.617188 -1.234375 5.726562 -1.175781 5.8125 -1.0625 C 5.894531 -0.96875 5.9375 -0.863281 5.9375 -0.75 C 5.9375 -0.675781 5.914062 -0.601562 5.875 -0.53125 C 5.832031 -0.46875 5.773438 -0.414062 5.703125 -0.375 C 5.453125 -0.226562 5.164062 -0.113281 4.84375 -0.03125 C 4.53125 0.0507812 4.21875 0.09375 3.90625 0.09375 C 3.28125 0.09375 2.703125 -0.046875 2.171875 -0.328125 C 1.640625 -0.609375 1.210938 -1.015625 0.890625 -1.546875 C 0.578125 -2.078125 0.421875 -2.703125 0.421875 -3.421875 C 0.421875 -4.078125 0.570312 -4.671875 0.875 -5.203125 C 1.175781 -5.734375 1.59375 -6.148438 2.125 -6.453125 C 2.65625 -6.765625 3.25 -6.921875 3.90625 -6.921875 C 4.539062 -6.921875 5.132812 -6.765625 5.6875 -6.453125 Z M 5.6875 -6.453125 "/></g></g></g><g fill="#f48c24" fill-opacity="1"><g transform="translate(265.772028, 166.446771)"><g><path d="M 7.03125 -3.421875 C 7.03125 -2.765625 6.890625 -2.164062 6.609375 -1.625 C 6.328125 -1.09375 5.929688 -0.671875 5.421875 -0.359375 C 4.921875 -0.0546875 4.359375 0.09375 3.734375 0.09375 C 3.097656 0.09375 2.523438 -0.0546875 2.015625 -0.359375 C 1.515625 -0.671875 1.125 -1.09375 0.84375 -1.625 C 0.5625 -2.164062 0.421875 -2.765625 0.421875 -3.421875 C 0.421875 -4.078125 0.5625 -4.671875 0.84375 -5.203125 C 1.125 -5.742188 1.515625 -6.164062 2.015625 -6.46875 C 2.523438 -6.78125 3.097656 -6.9375 3.734375 -6.9375 C 4.359375 -6.9375 4.921875 -6.78125 5.421875 -6.46875 C 5.929688 -6.164062 6.328125 -5.742188 6.609375 -5.203125 C 6.890625 -4.671875 7.03125 -4.078125 7.03125 -3.421875 Z M 6.03125 -3.421875 C 6.03125 -3.910156 5.929688 -4.351562 5.734375 -4.75 C 5.535156 -5.144531 5.257812 -5.453125 4.90625 -5.671875 C 4.5625 -5.898438 4.171875 -6.015625 3.734375 -6.015625 C 3.285156 -6.015625 2.882812 -5.898438 2.53125 -5.671875 C 2.1875 -5.453125 1.914062 -5.144531 1.71875 -4.75 C 1.519531 -4.363281 1.421875 -3.921875 1.421875 -3.421875 C 1.421875 -2.929688 1.519531 -2.488281 1.71875 -2.09375 C 1.914062 -1.695312 2.1875 -1.382812 2.53125 -1.15625 C 2.882812 -0.9375 3.285156 -0.828125 3.734375 -0.828125 C 4.171875 -0.828125 4.5625 -0.9375 4.90625 -1.15625 C 5.257812 -1.382812 5.535156 -1.695312 5.734375 -2.09375 C 5.929688 -2.488281 6.03125 -2.929688 6.03125 -3.421875 Z M 6.03125 -3.421875 "/></g></g></g><g fill="#f48c24" fill-opacity="1"><g transform="translate(272.640587, 166.446771)"><g><path d="M 5.921875 -6.84375 C 6.046875 -6.84375 6.144531 -6.800781 6.21875 -6.71875 C 6.300781 -6.644531 6.34375 -6.546875 6.34375 -6.421875 L 6.34375 -0.484375 C 6.34375 -0.347656 6.296875 -0.234375 6.203125 -0.140625 C 6.117188 -0.046875 6.007812 0 5.875 0 C 5.800781 0 5.726562 -0.0078125 5.65625 -0.03125 C 5.59375 -0.0507812 5.539062 -0.0859375 5.5 -0.140625 L 1.65625 -5.140625 L 1.65625 -0.4375 C 1.65625 -0.3125 1.613281 -0.207031 1.53125 -0.125 C 1.457031 -0.0390625 1.359375 0 1.234375 0 C 1.109375 0 1.003906 -0.0390625 0.921875 -0.125 C 0.847656 -0.207031 0.8125 -0.3125 0.8125 -0.4375 L 0.8125 -6.375 C 0.8125 -6.507812 0.851562 -6.617188 0.9375 -6.703125 C 1.03125 -6.796875 1.140625 -6.84375 1.265625 -6.84375 C 1.347656 -6.84375 1.425781 -6.828125 1.5 -6.796875 C 1.570312 -6.773438 1.625 -6.738281 1.65625 -6.6875 L 5.5 -1.65625 L 5.5 -6.421875 C 5.5 -6.546875 5.535156 -6.644531 5.609375 -6.71875 C 5.691406 -6.800781 5.796875 -6.84375 5.921875 -6.84375 Z M 5.921875 -6.84375 "/></g></g></g><g fill="#f48c24" fill-opacity="1"><g transform="translate(279.216011, 166.446771)"><g><path d="M 5.921875 -6.84375 C 6.046875 -6.84375 6.144531 -6.800781 6.21875 -6.71875 C 6.300781 -6.644531 6.34375 -6.546875 6.34375 -6.421875 L 6.34375 -0.484375 C 6.34375 -0.347656 6.296875 -0.234375 6.203125 -0.140625 C 6.117188 -0.046875 6.007812 0 5.875 0 C 5.800781 0 5.726562 -0.0078125 5.65625 -0.03125 C 5.59375 -0.0507812 5.539062 -0.0859375 5.5 -0.140625 L 1.65625 -5.140625 L 1.65625 -0.4375 C 1.65625 -0.3125 1.613281 -0.207031 1.53125 -0.125 C 1.457031 -0.0390625 1.359375 0 1.234375 0 C 1.109375 0 1.003906 -0.0390625 0.921875 -0.125 C 0.847656 -0.207031 0.8125 -0.3125 0.8125 -0.4375 L 0.8125 -6.375 C 0.8125 -6.507812 0.851562 -6.617188 0.9375 -6.703125 C 1.03125 -6.796875 1.140625 -6.84375 1.265625 -6.84375 C 1.347656 -6.84375 1.425781 -6.828125 1.5 -6.796875 C 1.570312 -6.773438 1.625 -6.738281 1.65625 -6.6875 L 5.5 -1.65625 L 5.5 -6.421875 C 5.5 -6.546875 5.535156 -6.644531 5.609375 -6.71875 C 5.691406 -6.800781 5.796875 -6.84375 5.921875 -6.84375 Z M 5.921875 -6.84375 "/></g></g></g><g fill="#f48c24" fill-opacity="1"><g transform="translate(285.791434, 166.446771)"><g><path d="M 4.6875 -0.90625 C 4.820312 -0.90625 4.929688 -0.859375 5.015625 -0.765625 C 5.109375 -0.671875 5.15625 -0.5625 5.15625 -0.4375 C 5.15625 -0.3125 5.109375 -0.207031 5.015625 -0.125 C 4.929688 -0.0390625 4.820312 0 4.6875 0 L 1.28125 0 C 1.144531 0 1.03125 -0.046875 0.9375 -0.140625 C 0.851562 -0.234375 0.8125 -0.34375 0.8125 -0.46875 L 0.8125 -6.375 C 0.8125 -6.507812 0.851562 -6.617188 0.9375 -6.703125 C 1.03125 -6.796875 1.144531 -6.84375 1.28125 -6.84375 L 4.6875 -6.84375 C 4.820312 -6.84375 4.929688 -6.800781 5.015625 -6.71875 C 5.109375 -6.632812 5.15625 -6.523438 5.15625 -6.390625 C 5.15625 -6.253906 5.109375 -6.144531 5.015625 -6.0625 C 4.929688 -5.988281 4.820312 -5.953125 4.6875 -5.953125 L 1.78125 -5.953125 L 1.78125 -3.953125 L 4.25 -3.953125 C 4.382812 -3.953125 4.492188 -3.910156 4.578125 -3.828125 C 4.671875 -3.742188 4.71875 -3.632812 4.71875 -3.5 C 4.71875 -3.363281 4.671875 -3.253906 4.578125 -3.171875 C 4.492188 -3.097656 4.382812 -3.0625 4.25 -3.0625 L 1.78125 -3.0625 L 1.78125 -0.90625 Z M 4.6875 -0.90625 "/></g></g></g><g fill="#f48c24" fill-opacity="1"><g transform="translate(290.783968, 166.446771)"><g><path d="M 5.6875 -6.453125 C 5.84375 -6.359375 5.921875 -6.222656 5.921875 -6.046875 C 5.921875 -5.929688 5.882812 -5.828125 5.8125 -5.734375 C 5.726562 -5.628906 5.617188 -5.578125 5.484375 -5.578125 C 5.390625 -5.578125 5.300781 -5.597656 5.21875 -5.640625 C 4.8125 -5.867188 4.375 -5.984375 3.90625 -5.984375 C 3.414062 -5.984375 2.984375 -5.875 2.609375 -5.65625 C 2.234375 -5.445312 1.941406 -5.144531 1.734375 -4.75 C 1.523438 -4.363281 1.421875 -3.921875 1.421875 -3.421875 C 1.421875 -2.878906 1.53125 -2.410156 1.75 -2.015625 C 1.96875 -1.628906 2.265625 -1.332031 2.640625 -1.125 C 3.015625 -0.925781 3.4375 -0.828125 3.90625 -0.828125 C 4.394531 -0.828125 4.832031 -0.941406 5.21875 -1.171875 C 5.300781 -1.210938 5.390625 -1.234375 5.484375 -1.234375 C 5.617188 -1.234375 5.726562 -1.175781 5.8125 -1.0625 C 5.894531 -0.96875 5.9375 -0.863281 5.9375 -0.75 C 5.9375 -0.675781 5.914062 -0.601562 5.875 -0.53125 C 5.832031 -0.46875 5.773438 -0.414062 5.703125 -0.375 C 5.453125 -0.226562 5.164062 -0.113281 4.84375 -0.03125 C 4.53125 0.0507812 4.21875 0.09375 3.90625 0.09375 C 3.28125 0.09375 2.703125 -0.046875 2.171875 -0.328125 C 1.640625 -0.609375 1.210938 -1.015625 0.890625 -1.546875 C 0.578125 -2.078125 0.421875 -2.703125 0.421875 -3.421875 C 0.421875 -4.078125 0.570312 -4.671875 0.875 -5.203125 C 1.175781 -5.734375 1.59375 -6.148438 2.125 -6.453125 C 2.65625 -6.765625 3.25 -6.921875 3.90625 -6.921875 C 4.539062 -6.921875 5.132812 -6.765625 5.6875 -6.453125 Z M 5.6875 -6.453125 "/></g></g></g><g fill="#f48c24" fill-opacity="1"><g transform="translate(296.440926, 166.446771)"><g><path d="M 5.25 -6.84375 C 5.382812 -6.84375 5.492188 -6.800781 5.578125 -6.71875 C 5.671875 -6.644531 5.71875 -6.535156 5.71875 -6.390625 C 5.71875 -6.253906 5.671875 -6.144531 5.578125 -6.0625 C 5.492188 -5.988281 5.382812 -5.953125 5.25 -5.953125 L 3.515625 -5.953125 L 3.515625 -0.46875 C 3.515625 -0.34375 3.46875 -0.234375 3.375 -0.140625 C 3.28125 -0.046875 3.160156 0 3.015625 0 C 2.867188 0 2.75 -0.046875 2.65625 -0.140625 C 2.5625 -0.234375 2.515625 -0.34375 2.515625 -0.46875 L 2.515625 -5.953125 L 0.78125 -5.953125 C 0.644531 -5.953125 0.53125 -5.992188 0.4375 -6.078125 C 0.351562 -6.160156 0.3125 -6.269531 0.3125 -6.40625 C 0.3125 -6.539062 0.351562 -6.644531 0.4375 -6.71875 C 0.53125 -6.800781 0.644531 -6.84375 0.78125 -6.84375 Z M 5.25 -6.84375 "/></g></g></g><g fill="#f48c24" fill-opacity="1"><g transform="translate(301.892698, 166.446771)"><g><path d="M 1.78125 -0.484375 C 1.78125 -0.347656 1.726562 -0.234375 1.625 -0.140625 C 1.53125 -0.046875 1.421875 0 1.296875 0 C 1.148438 0 1.03125 -0.046875 0.9375 -0.140625 C 0.851562 -0.234375 0.8125 -0.347656 0.8125 -0.484375 L 0.8125 -6.375 C 0.8125 -6.507812 0.851562 -6.617188 0.9375 -6.703125 C 1.03125 -6.796875 1.148438 -6.84375 1.296875 -6.84375 C 1.429688 -6.84375 1.546875 -6.796875 1.640625 -6.703125 C 1.734375 -6.617188 1.78125 -6.507812 1.78125 -6.375 Z M 1.78125 -0.484375 "/></g></g></g><g fill="#f48c24" fill-opacity="1"><g transform="translate(303.905086, 166.446771)"><g><path d="M 5.921875 -6.84375 C 6.046875 -6.84375 6.144531 -6.800781 6.21875 -6.71875 C 6.300781 -6.644531 6.34375 -6.546875 6.34375 -6.421875 L 6.34375 -0.484375 C 6.34375 -0.347656 6.296875 -0.234375 6.203125 -0.140625 C 6.117188 -0.046875 6.007812 0 5.875 0 C 5.800781 0 5.726562 -0.0078125 5.65625 -0.03125 C 5.59375 -0.0507812 5.539062 -0.0859375 5.5 -0.140625 L 1.65625 -5.140625 L 1.65625 -0.4375 C 1.65625 -0.3125 1.613281 -0.207031 1.53125 -0.125 C 1.457031 -0.0390625 1.359375 0 1.234375 0 C 1.109375 0 1.003906 -0.0390625 0.921875 -0.125 C 0.847656 -0.207031 0.8125 -0.3125 0.8125 -0.4375 L 0.8125 -6.375 C 0.8125 -6.507812 0.851562 -6.617188 0.9375 -6.703125 C 1.03125 -6.796875 1.140625 -6.84375 1.265625 -6.84375 C 1.347656 -6.84375 1.425781 -6.828125 1.5 -6.796875 C 1.570312 -6.773438 1.625 -6.738281 1.65625 -6.6875 L 5.5 -1.65625 L 5.5 -6.421875 C 5.5 -6.546875 5.535156 -6.644531 5.609375 -6.71875 C 5.691406 -6.800781 5.796875 -6.84375 5.921875 -6.84375 Z M 5.921875 -6.84375 "/></g></g></g><g fill="#f48c24" fill-opacity="1"><g transform="translate(310.480508, 166.446771)"><g><path d="M 5.84375 -3.59375 C 5.96875 -3.59375 6.070312 -3.546875 6.15625 -3.453125 C 6.25 -3.367188 6.296875 -3.257812 6.296875 -3.125 L 6.296875 -0.921875 C 6.296875 -0.753906 6.21875 -0.617188 6.0625 -0.515625 C 5.757812 -0.316406 5.425781 -0.164062 5.0625 -0.0625 C 4.707031 0.0390625 4.34375 0.09375 3.96875 0.09375 C 3.320312 0.09375 2.722656 -0.0625 2.171875 -0.375 C 1.628906 -0.6875 1.203125 -1.109375 0.890625 -1.640625 C 0.578125 -2.179688 0.421875 -2.773438 0.421875 -3.421875 C 0.421875 -4.066406 0.578125 -4.65625 0.890625 -5.1875 C 1.203125 -5.726562 1.628906 -6.15625 2.171875 -6.46875 C 2.722656 -6.78125 3.320312 -6.9375 3.96875 -6.9375 C 4.289062 -6.9375 4.601562 -6.898438 4.90625 -6.828125 C 5.21875 -6.765625 5.492188 -6.660156 5.734375 -6.515625 C 5.804688 -6.472656 5.863281 -6.414062 5.90625 -6.34375 C 5.945312 -6.28125 5.96875 -6.210938 5.96875 -6.140625 C 5.96875 -6.003906 5.921875 -5.890625 5.828125 -5.796875 C 5.742188 -5.703125 5.640625 -5.65625 5.515625 -5.65625 C 5.421875 -5.65625 5.335938 -5.675781 5.265625 -5.71875 C 4.835938 -5.914062 4.40625 -6.015625 3.96875 -6.015625 C 3.5 -6.015625 3.070312 -5.898438 2.6875 -5.671875 C 2.300781 -5.441406 1.992188 -5.128906 1.765625 -4.734375 C 1.535156 -4.335938 1.421875 -3.898438 1.421875 -3.421875 C 1.421875 -2.941406 1.535156 -2.503906 1.765625 -2.109375 C 1.992188 -1.722656 2.300781 -1.410156 2.6875 -1.171875 C 3.070312 -0.941406 3.5 -0.828125 3.96875 -0.828125 C 4.1875 -0.828125 4.414062 -0.851562 4.65625 -0.90625 C 4.90625 -0.957031 5.117188 -1.023438 5.296875 -1.109375 L 5.296875 -2.671875 L 4.125 -2.671875 C 3.988281 -2.671875 3.875 -2.710938 3.78125 -2.796875 C 3.695312 -2.890625 3.65625 -3 3.65625 -3.125 C 3.65625 -3.257812 3.695312 -3.367188 3.78125 -3.453125 C 3.875 -3.546875 3.988281 -3.59375 4.125 -3.59375 Z M 5.84375 -3.59375 "/></g></g></g><g fill="#f48c24" fill-opacity="1"><g transform="translate(260.657895, 175.131988)"><g><path d="M 6.015625 -0.796875 C 6.085938 -0.703125 6.125 -0.59375 6.125 -0.46875 C 6.125 -0.320312 6.066406 -0.203125 5.953125 -0.109375 C 5.847656 -0.0234375 5.726562 0.015625 5.59375 0.015625 C 5.46875 0.015625 5.351562 -0.0390625 5.25 -0.15625 L 2.875 -3.21875 L 1.78125 -2.1875 L 1.78125 -0.484375 C 1.78125 -0.347656 1.734375 -0.234375 1.640625 -0.140625 C 1.546875 -0.046875 1.429688 0 1.296875 0 C 1.148438 0 1.03125 -0.046875 0.9375 -0.140625 C 0.851562 -0.234375 0.8125 -0.347656 0.8125 -0.484375 L 0.8125 -6.375 C 0.8125 -6.507812 0.851562 -6.617188 0.9375 -6.703125 C 1.03125 -6.796875 1.148438 -6.84375 1.296875 -6.84375 C 1.441406 -6.84375 1.554688 -6.796875 1.640625 -6.703125 C 1.734375 -6.617188 1.78125 -6.507812 1.78125 -6.375 L 1.78125 -3.328125 L 5.25 -6.703125 C 5.375 -6.804688 5.5 -6.859375 5.625 -6.859375 C 5.738281 -6.859375 5.835938 -6.8125 5.921875 -6.71875 C 6.003906 -6.625 6.046875 -6.519531 6.046875 -6.40625 C 6.046875 -6.3125 6.003906 -6.210938 5.921875 -6.109375 L 3.59375 -3.90625 Z M 6.015625 -0.796875 "/></g></g></g><g fill="#f48c24" fill-opacity="1"><g transform="translate(266.559123, 175.131988)"><g><path d="M 5.921875 -6.84375 C 6.046875 -6.84375 6.144531 -6.800781 6.21875 -6.71875 C 6.300781 -6.644531 6.34375 -6.546875 6.34375 -6.421875 L 6.34375 -0.484375 C 6.34375 -0.347656 6.296875 -0.234375 6.203125 -0.140625 C 6.117188 -0.046875 6.007812 0 5.875 0 C 5.800781 0 5.726562 -0.0078125 5.65625 -0.03125 C 5.59375 -0.0507812 5.539062 -0.0859375 5.5 -0.140625 L 1.65625 -5.140625 L 1.65625 -0.4375 C 1.65625 -0.3125 1.613281 -0.207031 1.53125 -0.125 C 1.457031 -0.0390625 1.359375 0 1.234375 0 C 1.109375 0 1.003906 -0.0390625 0.921875 -0.125 C 0.847656 -0.207031 0.8125 -0.3125 0.8125 -0.4375 L 0.8125 -6.375 C 0.8125 -6.507812 0.851562 -6.617188 0.9375 -6.703125 C 1.03125 -6.796875 1.140625 -6.84375 1.265625 -6.84375 C 1.347656 -6.84375 1.425781 -6.828125 1.5 -6.796875 C 1.570312 -6.773438 1.625 -6.738281 1.65625 -6.6875 L 5.5 -1.65625 L 5.5 -6.421875 C 5.5 -6.546875 5.535156 -6.644531 5.609375 -6.71875 C 5.691406 -6.800781 5.796875 -6.84375 5.921875 -6.84375 Z M 5.921875 -6.84375 "/></g></g></g><g fill="#f48c24" fill-opacity="1"><g transform="translate(273.134547, 175.131988)"><g><path d="M 7.03125 -3.421875 C 7.03125 -2.765625 6.890625 -2.164062 6.609375 -1.625 C 6.328125 -1.09375 5.929688 -0.671875 5.421875 -0.359375 C 4.921875 -0.0546875 4.359375 0.09375 3.734375 0.09375 C 3.097656 0.09375 2.523438 -0.0546875 2.015625 -0.359375 C 1.515625 -0.671875 1.125 -1.09375 0.84375 -1.625 C 0.5625 -2.164062 0.421875 -2.765625 0.421875 -3.421875 C 0.421875 -4.078125 0.5625 -4.671875 0.84375 -5.203125 C 1.125 -5.742188 1.515625 -6.164062 2.015625 -6.46875 C 2.523438 -6.78125 3.097656 -6.9375 3.734375 -6.9375 C 4.359375 -6.9375 4.921875 -6.78125 5.421875 -6.46875 C 5.929688 -6.164062 6.328125 -5.742188 6.609375 -5.203125 C 6.890625 -4.671875 7.03125 -4.078125 7.03125 -3.421875 Z M 6.03125 -3.421875 C 6.03125 -3.910156 5.929688 -4.351562 5.734375 -4.75 C 5.535156 -5.144531 5.257812 -5.453125 4.90625 -5.671875 C 4.5625 -5.898438 4.171875 -6.015625 3.734375 -6.015625 C 3.285156 -6.015625 2.882812 -5.898438 2.53125 -5.671875 C 2.1875 -5.453125 1.914062 -5.144531 1.71875 -4.75 C 1.519531 -4.363281 1.421875 -3.921875 1.421875 -3.421875 C 1.421875 -2.929688 1.519531 -2.488281 1.71875 -2.09375 C 1.914062 -1.695312 2.1875 -1.382812 2.53125 -1.15625 C 2.882812 -0.9375 3.285156 -0.828125 3.734375 -0.828125 C 4.171875 -0.828125 4.5625 -0.9375 4.90625 -1.15625 C 5.257812 -1.382812 5.535156 -1.695312 5.734375 -2.09375 C 5.929688 -2.488281 6.03125 -2.929688 6.03125 -3.421875 Z M 6.03125 -3.421875 "/></g></g></g><g fill="#f48c24" fill-opacity="1"><g transform="translate(280.003107, 175.131988)"><g><path d="M 8.609375 -6.875 C 8.734375 -6.875 8.847656 -6.828125 8.953125 -6.734375 C 9.054688 -6.648438 9.109375 -6.53125 9.109375 -6.375 C 9.109375 -6.320312 9.097656 -6.269531 9.078125 -6.21875 L 7.046875 -0.296875 C 7.023438 -0.203125 6.972656 -0.128906 6.890625 -0.078125 C 6.804688 -0.0351562 6.71875 -0.0078125 6.625 0 C 6.539062 0 6.453125 -0.0234375 6.359375 -0.078125 C 6.273438 -0.128906 6.21875 -0.203125 6.1875 -0.296875 L 4.65625 -3.875 L 3.140625 -0.296875 C 3.097656 -0.203125 3.035156 -0.128906 2.953125 -0.078125 C 2.867188 -0.0234375 2.78125 0 2.6875 0 C 2.59375 -0.0078125 2.503906 -0.0390625 2.421875 -0.09375 C 2.347656 -0.144531 2.296875 -0.210938 2.265625 -0.296875 L 0.25 -6.21875 C 0.226562 -6.269531 0.21875 -6.320312 0.21875 -6.375 C 0.21875 -6.519531 0.269531 -6.640625 0.375 -6.734375 C 0.476562 -6.828125 0.59375 -6.875 0.71875 -6.875 C 0.820312 -6.875 0.914062 -6.84375 1 -6.78125 C 1.09375 -6.726562 1.148438 -6.660156 1.171875 -6.578125 L 2.828125 -1.671875 L 4.25 -5.15625 C 4.28125 -5.25 4.332031 -5.320312 4.40625 -5.375 C 4.488281 -5.425781 4.582031 -5.453125 4.6875 -5.453125 C 4.78125 -5.453125 4.863281 -5.425781 4.9375 -5.375 C 5.019531 -5.320312 5.082031 -5.25 5.125 -5.15625 L 6.5 -1.671875 L 8.140625 -6.578125 C 8.171875 -6.671875 8.226562 -6.742188 8.3125 -6.796875 C 8.394531 -6.847656 8.492188 -6.875 8.609375 -6.875 Z M 8.609375 -6.875 "/></g></g></g><g fill="#f48c24" fill-opacity="1"><g transform="translate(288.737918, 175.131988)"><g><path d="M 4.59375 -0.90625 C 4.726562 -0.90625 4.835938 -0.863281 4.921875 -0.78125 C 5.015625 -0.695312 5.0625 -0.585938 5.0625 -0.453125 C 5.0625 -0.316406 5.015625 -0.207031 4.921875 -0.125 C 4.835938 -0.0390625 4.726562 0 4.59375 0 L 1.28125 0 C 1.144531 0 1.03125 -0.046875 0.9375 -0.140625 C 0.851562 -0.234375 0.8125 -0.34375 0.8125 -0.46875 L 0.8125 -6.375 C 0.8125 -6.507812 0.851562 -6.617188 0.9375 -6.703125 C 1.03125 -6.796875 1.148438 -6.84375 1.296875 -6.84375 C 1.429688 -6.84375 1.546875 -6.796875 1.640625 -6.703125 C 1.734375 -6.617188 1.78125 -6.507812 1.78125 -6.375 L 1.78125 -0.90625 Z M 4.59375 -0.90625 "/></g></g></g><g fill="#f48c24" fill-opacity="1"><g transform="translate(293.535037, 175.131988)"><g><path d="M 4.6875 -0.90625 C 4.820312 -0.90625 4.929688 -0.859375 5.015625 -0.765625 C 5.109375 -0.671875 5.15625 -0.5625 5.15625 -0.4375 C 5.15625 -0.3125 5.109375 -0.207031 5.015625 -0.125 C 4.929688 -0.0390625 4.820312 0 4.6875 0 L 1.28125 0 C 1.144531 0 1.03125 -0.046875 0.9375 -0.140625 C 0.851562 -0.234375 0.8125 -0.34375 0.8125 -0.46875 L 0.8125 -6.375 C 0.8125 -6.507812 0.851562 -6.617188 0.9375 -6.703125 C 1.03125 -6.796875 1.144531 -6.84375 1.28125 -6.84375 L 4.6875 -6.84375 C 4.820312 -6.84375 4.929688 -6.800781 5.015625 -6.71875 C 5.109375 -6.632812 5.15625 -6.523438 5.15625 -6.390625 C 5.15625 -6.253906 5.109375 -6.144531 5.015625 -6.0625 C 4.929688 -5.988281 4.820312 -5.953125 4.6875 -5.953125 L 1.78125 -5.953125 L 1.78125 -3.953125 L 4.25 -3.953125 C 4.382812 -3.953125 4.492188 -3.910156 4.578125 -3.828125 C 4.671875 -3.742188 4.71875 -3.632812 4.71875 -3.5 C 4.71875 -3.363281 4.671875 -3.253906 4.578125 -3.171875 C 4.492188 -3.097656 4.382812 -3.0625 4.25 -3.0625 L 1.78125 -3.0625 L 1.78125 -0.90625 Z M 4.6875 -0.90625 "/></g></g></g><g fill="#f48c24" fill-opacity="1"><g transform="translate(298.52757, 175.131988)"><g><path d="M 5.84375 -3.59375 C 5.96875 -3.59375 6.070312 -3.546875 6.15625 -3.453125 C 6.25 -3.367188 6.296875 -3.257812 6.296875 -3.125 L 6.296875 -0.921875 C 6.296875 -0.753906 6.21875 -0.617188 6.0625 -0.515625 C 5.757812 -0.316406 5.425781 -0.164062 5.0625 -0.0625 C 4.707031 0.0390625 4.34375 0.09375 3.96875 0.09375 C 3.320312 0.09375 2.722656 -0.0625 2.171875 -0.375 C 1.628906 -0.6875 1.203125 -1.109375 0.890625 -1.640625 C 0.578125 -2.179688 0.421875 -2.773438 0.421875 -3.421875 C 0.421875 -4.066406 0.578125 -4.65625 0.890625 -5.1875 C 1.203125 -5.726562 1.628906 -6.15625 2.171875 -6.46875 C 2.722656 -6.78125 3.320312 -6.9375 3.96875 -6.9375 C 4.289062 -6.9375 4.601562 -6.898438 4.90625 -6.828125 C 5.21875 -6.765625 5.492188 -6.660156 5.734375 -6.515625 C 5.804688 -6.472656 5.863281 -6.414062 5.90625 -6.34375 C 5.945312 -6.28125 5.96875 -6.210938 5.96875 -6.140625 C 5.96875 -6.003906 5.921875 -5.890625 5.828125 -5.796875 C 5.742188 -5.703125 5.640625 -5.65625 5.515625 -5.65625 C 5.421875 -5.65625 5.335938 -5.675781 5.265625 -5.71875 C 4.835938 -5.914062 4.40625 -6.015625 3.96875 -6.015625 C 3.5 -6.015625 3.070312 -5.898438 2.6875 -5.671875 C 2.300781 -5.441406 1.992188 -5.128906 1.765625 -4.734375 C 1.535156 -4.335938 1.421875 -3.898438 1.421875 -3.421875 C 1.421875 -2.941406 1.535156 -2.503906 1.765625 -2.109375 C 1.992188 -1.722656 2.300781 -1.410156 2.6875 -1.171875 C 3.070312 -0.941406 3.5 -0.828125 3.96875 -0.828125 C 4.1875 -0.828125 4.414062 -0.851562 4.65625 -0.90625 C 4.90625 -0.957031 5.117188 -1.023438 5.296875 -1.109375 L 5.296875 -2.671875 L 4.125 -2.671875 C 3.988281 -2.671875 3.875 -2.710938 3.78125 -2.796875 C 3.695312 -2.890625 3.65625 -3 3.65625 -3.125 C 3.65625 -3.257812 3.695312 -3.367188 3.78125 -3.453125 C 3.875 -3.546875 3.988281 -3.59375 4.125 -3.59375 Z M 5.84375 -3.59375 "/></g></g></g><g fill="#f48c24" fill-opacity="1"><g transform="translate(304.741475, 175.131988)"><g><path d="M 3.6875 -6.84375 C 4.300781 -6.84375 4.828125 -6.6875 5.265625 -6.375 C 5.703125 -6.070312 6.03125 -5.660156 6.25 -5.140625 C 6.46875 -4.628906 6.578125 -4.054688 6.578125 -3.421875 C 6.578125 -2.785156 6.46875 -2.207031 6.25 -1.6875 C 6.03125 -1.164062 5.703125 -0.753906 5.265625 -0.453125 C 4.828125 -0.148438 4.300781 0 3.6875 0 L 1.28125 0 C 1.144531 0 1.03125 -0.046875 0.9375 -0.140625 C 0.851562 -0.234375 0.8125 -0.34375 0.8125 -0.46875 L 0.8125 -6.375 C 0.8125 -6.507812 0.851562 -6.617188 0.9375 -6.703125 C 1.03125 -6.796875 1.144531 -6.84375 1.28125 -6.84375 Z M 3.59375 -0.90625 C 4.257812 -0.90625 4.753906 -1.140625 5.078125 -1.609375 C 5.410156 -2.078125 5.578125 -2.679688 5.578125 -3.421875 C 5.578125 -4.148438 5.410156 -4.753906 5.078125 -5.234375 C 4.742188 -5.710938 4.25 -5.953125 3.59375 -5.953125 L 1.78125 -5.953125 L 1.78125 -0.90625 Z M 3.59375 -0.90625 "/></g></g></g><g fill="#f48c24" fill-opacity="1"><g transform="translate(311.170336, 175.131988)"><g><path d="M 4.6875 -0.90625 C 4.820312 -0.90625 4.929688 -0.859375 5.015625 -0.765625 C 5.109375 -0.671875 5.15625 -0.5625 5.15625 -0.4375 C 5.15625 -0.3125 5.109375 -0.207031 5.015625 -0.125 C 4.929688 -0.0390625 4.820312 0 4.6875 0 L 1.28125 0 C 1.144531 0 1.03125 -0.046875 0.9375 -0.140625 C 0.851562 -0.234375 0.8125 -0.34375 0.8125 -0.46875 L 0.8125 -6.375 C 0.8125 -6.507812 0.851562 -6.617188 0.9375 -6.703125 C 1.03125 -6.796875 1.144531 -6.84375 1.28125 -6.84375 L 4.6875 -6.84375 C 4.820312 -6.84375 4.929688 -6.800781 5.015625 -6.71875 C 5.109375 -6.632812 5.15625 -6.523438 5.15625 -6.390625 C 5.15625 -6.253906 5.109375 -6.144531 5.015625 -6.0625 C 4.929688 -5.988281 4.820312 -5.953125 4.6875 -5.953125 L 1.78125 -5.953125 L 1.78125 -3.953125 L 4.25 -3.953125 C 4.382812 -3.953125 4.492188 -3.910156 4.578125 -3.828125 C 4.671875 -3.742188 4.71875 -3.632812 4.71875 -3.5 C 4.71875 -3.363281 4.671875 -3.253906 4.578125 -3.171875 C 4.492188 -3.097656 4.382812 -3.0625 4.25 -3.0625 L 1.78125 -3.0625 L 1.78125 -0.90625 Z M 4.6875 -0.90625 "/></g></g></g></svg>